<svg xmlns="http://www.w3.org/2000/svg" height="48" viewBox="0 -960 960 960" width="48"><path fill="#FFFFFF" d="M499.759 23Q353 23 250-80.17 147-183.342 147-330v-360q0-47.48 30.5-77.74Q208-798 249-803q4 0 9.5 1.5t9.5 3.5v-23q4-41 34.5-71.5T380-923q5.05 0 10.525 1Q396-921 401-920q16.279-28 41.639-45.5Q468-983 500-983q41.391 0 71.196 26Q601-931 606-898q2-2 6.794-3.5T624-903q47.06 0 78.03 33.18T733-790v141q6-1 11.5-2.5t6.5-1.5q43 5 72.5 36.5T853-540v210q0 146.659-103.241 249.83Q646.519 23 499.759 23ZM500-60q56 0 105.5-21t86-57.5q36.5-36.5 57.5-86T770-330v-210q0-13-8.5-21.5T740-570q-12 0-21 8.5t-9 21.5v170l-13 2q-45 7-74.5 40T590-250h-60q3-56 35.5-100t84.5-66v-374q0-13-8.5-21.5T620-820q-12 0-21 8.5t-9 21.5v260h-60v-340q0-13-8.5-21.5T500-900q-12 0-21 8.5t-9 21.5v340h-60v-280q0-13-8.5-21.5T380-840q-12 0-21 8.5t-9 21.5v320h-60v-200q0-13-8.5-21.5T260-720q-12 0-21 8.5t-9 21.5v360q0 56 21 105.5t57.5 86Q345-102 394.5-81T500-60Z"/></svg>